<svg id="visual" viewBox="0 0 1920 1080" width="1920" height="1080" xmlns="http://www.w3.org/2000/svg" xmlns:xlink="http://www.w3.org/1999/xlink" version="1.1"><rect x="0" y="0" width="1920" height="1080" fill="#15130F"></rect><defs><linearGradient id="grad1_0" x1="43.8%" y1="0%" x2="100%" y2="100%"><stop offset="14.444444444444446%" stop-color="#a59481" stop-opacity="1"></stop><stop offset="85.55555555555554%" stop-color="#a59481" stop-opacity="1"></stop></linearGradient></defs><defs><linearGradient id="grad1_1" x1="43.8%" y1="0%" x2="100%" y2="100%"><stop offset="14.444444444444446%" stop-color="#a59481" stop-opacity="1"></stop><stop offset="85.55555555555554%" stop-color="#706558" stop-opacity="1"></stop></linearGradient></defs><defs><linearGradient id="grad1_2" x1="43.8%" y1="0%" x2="100%" y2="100%"><stop offset="14.444444444444446%" stop-color="#3f3a32" stop-opacity="1"></stop><stop offset="85.55555555555554%" stop-color="#706558" stop-opacity="1"></stop></linearGradient></defs><defs><linearGradient id="grad1_3" x1="43.8%" y1="0%" x2="100%" y2="100%"><stop offset="14.444444444444446%" stop-color="#3f3a32" stop-opacity="1"></stop><stop offset="85.55555555555554%" stop-color="#15130f" stop-opacity="1"></stop></linearGradient></defs><defs><linearGradient id="grad2_0" x1="0%" y1="0%" x2="56.3%" y2="100%"><stop offset="14.444444444444446%" stop-color="#a59481" stop-opacity="1"></stop><stop offset="85.55555555555554%" stop-color="#a59481" stop-opacity="1"></stop></linearGradient></defs><defs><linearGradient id="grad2_1" x1="0%" y1="0%" x2="56.3%" y2="100%"><stop offset="14.444444444444446%" stop-color="#706558" stop-opacity="1"></stop><stop offset="85.55555555555554%" stop-color="#a59481" stop-opacity="1"></stop></linearGradient></defs><defs><linearGradient id="grad2_2" x1="0%" y1="0%" x2="56.3%" y2="100%"><stop offset="14.444444444444446%" stop-color="#706558" stop-opacity="1"></stop><stop offset="85.55555555555554%" stop-color="#3f3a32" stop-opacity="1"></stop></linearGradient></defs><defs><linearGradient id="grad2_3" x1="0%" y1="0%" x2="56.3%" y2="100%"><stop offset="14.444444444444446%" stop-color="#15130f" stop-opacity="1"></stop><stop offset="85.55555555555554%" stop-color="#3f3a32" stop-opacity="1"></stop></linearGradient></defs><g transform="translate(1920, 0)"><path d="M0 648C-64.7 616.8 -129.4 585.7 -177.4 545.9C-225.4 506.1 -256.7 457.8 -315.1 433.6C-373.4 409.5 -458.9 409.7 -515.3 374.4C-571.7 339.2 -599 268.5 -616.3 200.2C-633.5 131.9 -640.8 66 -648 0L0 0Z" fill="#292621"></path><path d="M0 486C-48.5 462.6 -97 439.3 -133 409.4C-169 379.6 -192.5 343.3 -236.3 325.2C-280.1 307.1 -344.2 307.2 -386.5 280.8C-428.8 254.4 -449.3 201.4 -462.2 150.2C-475.2 99 -480.6 49.5 -486 0L0 0Z" fill="#574f44"></path><path d="M0 324C-32.3 308.4 -64.7 292.8 -88.7 273C-112.7 253.1 -128.3 228.9 -157.5 216.8C-186.7 204.8 -229.5 204.8 -257.7 187.2C-285.9 169.6 -299.5 134.3 -308.1 100.1C-316.8 66 -320.4 33 -324 0L0 0Z" fill="#8a7c6c"></path><path d="M0 162C-16.2 154.2 -32.3 146.4 -44.3 136.5C-56.3 126.5 -64.2 114.4 -78.8 108.4C-93.4 102.4 -114.7 102.4 -128.8 93.6C-142.9 84.8 -149.8 67.1 -154.1 50.1C-158.4 33 -160.2 16.5 -162 0L0 0Z" fill="#a59481"></path></g><g transform="translate(0, 1080)"><path d="M0 -648C49.2 -581.1 98.4 -514.2 163.2 -502.2C228 -490.1 308.4 -532.8 380.3 -523.4C452.2 -514.1 515.6 -452.6 524.2 -380.9C532.9 -309.1 486.8 -227.1 498.4 -161.9C509.9 -96.7 578.9 -48.4 648 0L0 0Z" fill="#292621"></path><path d="M0 -486C36.9 -435.8 73.8 -385.7 122.4 -376.6C171 -367.6 231.3 -399.6 285.2 -392.6C339.2 -385.6 386.7 -339.5 393.2 -285.7C399.7 -231.9 365.1 -170.3 373.8 -121.4C382.4 -72.5 434.2 -36.3 486 0L0 0Z" fill="#574f44"></path><path d="M0 -324C24.6 -290.6 49.2 -257.1 81.6 -251.1C114 -245 154.2 -266.4 190.1 -261.7C226.1 -257 257.8 -226.3 262.1 -190.4C266.5 -154.6 243.4 -113.6 249.2 -81C254.9 -48.4 289.5 -24.2 324 0L0 0Z" fill="#8a7c6c"></path><path d="M0 -162C12.3 -145.3 24.6 -128.6 40.8 -125.5C57 -122.5 77.1 -133.2 95.1 -130.9C113.1 -128.5 128.9 -113.2 131.1 -95.2C133.2 -77.3 121.7 -56.8 124.6 -40.5C127.5 -24.2 144.7 -12.1 162 0L0 0Z" fill="#a59481"></path></g></svg>