<?xml version="1.0" encoding="utf-8"?>
<svg id="visual" viewBox="0 0 1920 1080" width="1920" height="1080" version="1.1" xmlns="http://www.w3.org/2000/svg">
  <defs/>
  <defs/>
  <defs/>
  <defs/>
  <defs/>
  <defs/>
  <defs/>
  <defs/>
  <g transform="matrix(1, 0, 0, 1, -19.081272, 1111.802124)">
    <path d="M0 -648C49.2 -581.1 98.4 -514.2 163.2 -502.2C228 -490.1 308.4 -532.8 380.3 -523.4C452.2 -514.1 515.6 -452.6 524.2 -380.9C532.9 -309.1 486.8 -227.1 498.4 -161.9C509.9 -96.7 578.9 -48.4 648 0L0 0Z" fill="#292621"/>
    <path d="M0 -486C36.9 -435.8 73.8 -385.7 122.4 -376.6C171 -367.6 231.3 -399.6 285.2 -392.6C339.2 -385.6 386.7 -339.5 393.2 -285.7C399.7 -231.9 365.1 -170.3 373.8 -121.4C382.4 -72.5 434.2 -36.3 486 0L0 0Z" fill="#292621"/>
    <path d="M -2.544 -415.59 C 29.396 -372.486 61.337 -329.253 103.405 -321.51 C 145.472 -313.638 197.668 -341.255 244.28 -335.19 C 291.022 -329.124 332.181 -289.505 337.764 -243.174 C 343.477 -196.973 313.484 -144.061 321.015 -101.99 C 328.416 -59.918 373.34 -28.687 418.134 2.544 L -2.544 2.544 L -2.544 -415.59 Z" fill="#8a7c6c" style=""/>
    <path d="M 0 -221.788 C 17.805 -198.925 35.611 -176.061 59.061 -171.817 C 82.512 -167.71 111.609 -182.359 137.665 -179.21 C 163.722 -175.924 186.594 -154.978 189.778 -130.335 C 192.818 -105.828 176.171 -77.763 180.369 -55.447 C 184.567 -33.131 209.466 -16.566 234.509 0 L 0 0 L 0 -221.788 Z" fill="#a59481" style=""/>
  </g>
</svg>